<svg xmlns="http://www.w3.org/2000/svg" viewBox="0 0 128 128" width="128" height="128" role="img" aria-label="Amara"><defs><linearGradient id="amara-bg" x1="0" y1="0" x2="0" y2="1"><stop offset="0" stop-color="#EEF3FF"/><stop offset="1" stop-color="#D3E2FF"/></linearGradient><clipPath id="amara-c"><circle cx="64" cy="64" r="64"/></clipPath></defs><circle cx="64" cy="64" r="64" fill="url(#amara-bg)"/><g clip-path="url(#amara-c)"><circle cx="64" cy="58" r="50" fill="#fff" opacity=".28"/><g transform="translate(64 124) scale(1.08) translate(-64 -124)"><circle cx="64" cy="27.5" r="13.6" fill="#1C130F"/><path d="M55,24 a9.6,9.6 0 0 1 9,-7" stroke="#3A2A22" stroke-width="2.2" fill="none" stroke-linecap="round"/><path d="M12,132 C12,112 28,101 50,98 L78,98 C100,101 116,112 116,132Z" fill="#2F6BFF"/><path d="M48,98 L80,98 L74,132 L54,132Z" fill="#FFFFFF"/><path d="M54,76 L54,98 Q64,106 74,98 L74,76Z" fill="#7B4A2D"/><path d="M54,84 Q64,92 74,84 L74,78 L54,78Z" fill="#5E341C" opacity=".55"/><ellipse cx="40.5" cy="63" rx="5" ry="6.6" fill="#7B4A2D"/><ellipse cx="87.5" cy="63" rx="5" ry="6.6" fill="#7B4A2D"/><path d="M39.5,60 q2.4,3 0,6.5" stroke="#5E341C" stroke-width="1.6" fill="none" stroke-linecap="round"/><path d="M88.5,60 q-2.4,3 0,6.5" stroke="#5E341C" stroke-width="1.6" fill="none" stroke-linecap="round"/><circle cx="40.5" cy="73" r="3.4" fill="none" stroke="#FFC857" stroke-width="1.6"/><circle cx="87.5" cy="73" r="3.4" fill="none" stroke="#FFC857" stroke-width="1.6"/><path d="M41,58 C41,38 51,29 64,29 C77,29 87,38 87,58 C87,76 77,89 64,89 C51,89 41,76 41,58Z" fill="#7B4A2D"/><path d="M44,70 C48,82 56,89 64,89 C72,89 80,82 84,70 C80,80 72,85 64,85 C56,85 48,80 44,70Z" fill="#5E341C" opacity=".35"/><ellipse cx="50.5" cy="71" rx="4.6" ry="2.8" fill="#F07A7A" opacity="0.14"/><ellipse cx="77.5" cy="71" rx="4.6" ry="2.8" fill="#F07A7A" opacity="0.14"/><ellipse cx="54.5" cy="62" rx="2.7" ry="3.3" fill="#1B1530"/><circle cx="55.4" cy="60.8" r="0.95" fill="#fff"/><ellipse cx="73.5" cy="62" rx="2.7" ry="3.3" fill="#1B1530"/><circle cx="74.4" cy="60.8" r="0.95" fill="#fff"/><path d="M51.2,59.6 l-1.8,-1.2 M76.8,59.6 l1.8,-1.2" stroke="#1B1530" stroke-width="1.3" stroke-linecap="round"/><path d="M49.5,55.7 Q54.5,52.5 59.5,54.9" stroke="#140D0A" stroke-width="2.2" fill="none" stroke-linecap="round"/><path d="M68.5,54.9 Q73.5,52.5 78.5,55.7" stroke="#140D0A" stroke-width="2.2" fill="none" stroke-linecap="round"/><path d="M64,64 C63.4,67 62.2,69 61.6,70.2 Q63.4,71.6 66.4,70.6" stroke="#5E341C" stroke-width="1.9" fill="none" stroke-linecap="round" stroke-linejoin="round"/><path d="M57.2,75.2 Q64,77.2 70.8,75.2 Q69.6,81.6 64,81.8 Q58.4,81.6 57.2,75.2Z" fill="#8E2F3A"/><path d="M58.4,75.6 Q64,77.2 69.6,75.6 L69.2,77.2 Q64,78.4 58.8,77.2Z" fill="#fff"/><path d="M60.4,80.4 Q64,79 67.6,80.4 Q64,81.9 60.4,80.4Z" fill="#E8737E" opacity=".9"/><path d="M41,56 C40,38 50,28.5 64,28.5 C78,28.5 88,38 87,56 C85,46 80,40.5 74,38.8 C68,37.4 60,37.4 54,38.8 C48,40.5 43,46 41,56Z" fill="#1C130F"/><rect x="51" y="31" width="26" height="4.6" rx="2.3" fill="#2F6BFF"/></g></g></svg>
