<svg xmlns="http://www.w3.org/2000/svg" viewBox="0 0 128 128" width="128" height="128" role="img" aria-label="Zara"><defs><linearGradient id="zara-bg" x1="0" y1="0" x2="0" y2="1"><stop offset="0" stop-color="#EBF1FF"/><stop offset="1" stop-color="#CEDEFF"/></linearGradient><clipPath id="zara-c"><circle cx="64" cy="64" r="64"/></clipPath></defs><circle cx="64" cy="64" r="64" fill="url(#zara-bg)"/><g clip-path="url(#zara-c)"><circle cx="64" cy="58" r="50" fill="#fff" opacity=".28"/><g transform="translate(64 124) scale(1.12) translate(-64 -124)"><path d="M33,60 C31,36 46,23 64,23 C82,23 97,36 95,60 L99,108 Q93,113 86,109 L42,109 Q35,113 29,108Z" fill="#1A120E"/><g fill="none" stroke="#3B2A21" stroke-width="1.5" stroke-linecap="round" stroke-dasharray="2.6 2.2" opacity=".95"><path d="M34,66 L33,106"/><path d="M38.5,70 L38,108"/><path d="M89.5,70 L90,108"/><path d="M94,66 L95,106"/></g><path d="M12,132 C12,112 28,101 50,98 L78,98 C100,101 116,112 116,132Z" fill="#5B8DEF"/><path d="M54,76 L54,98 Q64,106 74,98 L74,76Z" fill="#6F4127"/><path d="M54,84 Q64,92 74,84 L74,78 L54,78Z" fill="#52301A" opacity=".55"/><path d="M52,97.4 Q64,106 76,97.4" stroke="#FFFFFF" stroke-width="2.4" fill="none" stroke-linecap="round"/><circle cx="64" cy="105.4" r="2.2" fill="#FFD27A"/><ellipse cx="40.5" cy="63" rx="5" ry="6.6" fill="#6F4127"/><ellipse cx="87.5" cy="63" rx="5" ry="6.6" fill="#6F4127"/><path d="M39.5,60 q2.4,3 0,6.5" stroke="#52301A" stroke-width="1.6" fill="none" stroke-linecap="round"/><path d="M88.5,60 q-2.4,3 0,6.5" stroke="#52301A" stroke-width="1.6" fill="none" stroke-linecap="round"/><circle cx="40.5" cy="71.6" r="2" fill="#FFD27A"/><circle cx="87.5" cy="71.6" r="2" fill="#FFD27A"/><path d="M41,58 C41,38 51,29 64,29 C77,29 87,38 87,58 C87,76 77,89 64,89 C51,89 41,76 41,58Z" fill="#6F4127"/><path d="M44,70 C48,82 56,89 64,89 C72,89 80,82 84,70 C80,80 72,85 64,85 C56,85 48,80 44,70Z" fill="#52301A" opacity=".35"/><ellipse cx="50.5" cy="71" rx="4.6" ry="2.8" fill="#F07A7A" opacity="0.14"/><ellipse cx="77.5" cy="71" rx="4.6" ry="2.8" fill="#F07A7A" opacity="0.14"/><ellipse cx="54.5" cy="62" rx="2.7" ry="3.3" fill="#1B1530"/><circle cx="55.4" cy="60.8" r="0.95" fill="#fff"/><ellipse cx="73.5" cy="62" rx="2.7" ry="3.3" fill="#1B1530"/><circle cx="74.4" cy="60.8" r="0.95" fill="#fff"/><path d="M51.2,59.6 l-1.8,-1.2 M76.8,59.6 l1.8,-1.2" stroke="#1B1530" stroke-width="1.3" stroke-linecap="round"/><path d="M49.5,55.7 Q54.5,52.5 59.5,54.9" stroke="#130C09" stroke-width="2.2" fill="none" stroke-linecap="round"/><path d="M68.5,54.9 Q73.5,52.5 78.5,55.7" stroke="#130C09" stroke-width="2.2" fill="none" stroke-linecap="round"/><path d="M64,64 C63.4,67 62.2,69 61.6,70.2 Q63.4,71.6 66.4,70.6" stroke="#52301A" stroke-width="1.9" fill="none" stroke-linecap="round" stroke-linejoin="round"/><path d="M57.2,75.2 Q64,77.2 70.8,75.2 Q69.6,81.6 64,81.8 Q58.4,81.6 57.2,75.2Z" fill="#8E2F3A"/><path d="M58.4,75.6 Q64,77.2 69.6,75.6 L69.2,77.2 Q64,78.4 58.8,77.2Z" fill="#fff"/><path d="M60.4,80.4 Q64,79 67.6,80.4 Q64,81.9 60.4,80.4Z" fill="#E8737E" opacity=".9"/><path d="M40,60 C38,40 49,27 64,27 C79,27 90,40 88,60 C86.4,50 82.4,44.4 76.6,41.6 C71.6,40.4 67,38.2 64,33.4 C61,38.2 56.4,40.4 51.4,41.6 C45.6,44.4 41.6,50 40,60Z" fill="#20160F"/><g fill="none" stroke="#3E2C22" stroke-width="1.4" stroke-linecap="round" opacity=".9"><path d="M62,31 C57,35 50,37.6 45,44"/><path d="M66,31 C71,35 78,37.6 83,44"/></g></g></g></svg>
